<?xml version="1.0" encoding="UTF-8" standalone="no"?>
<!-- Uploaded to: SVG Repo, www.svgrepo.com, Generator: SVG Repo Mixer Tools -->

<svg
   width="40px"
   height="40px"
   viewBox="0 0 40 40"
   fill="#EDEFEE"
   inkscape:version="1.4.2 (ebf0e940d0, 2025-05-08)"
   sodipodi:docname="add.svg"
   version="1.1"
   id="svg1"
   xmlns:inkscape="http://www.inkscape.org/namespaces/inkscape"
   xmlns:sodipodi="http://sodipodi.sourceforge.net/DTD/sodipodi-0.dtd"
   xmlns="http://www.w3.org/2000/svg"
   xmlns:svg="http://www.w3.org/2000/svg">
  <defs
     id="defs1" />
  <sodipodi:namedview
     inkscape:zoom="4.88"
     inkscape:cx="87.5"
     inkscape:cy="41.290984"
     inkscape:window-width="1920"
     inkscape:window-height="1000"
     inkscape:window-x="0"
     inkscape:window-y="0"
     inkscape:window-maximized="1"
     id="namedview1"
     pagecolor="#ffffff"
     bordercolor="#000000"
     borderopacity="0.25"
     inkscape:showpageshadow="2"
     inkscape:pageopacity="0.0"
     inkscape:pagecheckerboard="0"
     inkscape:deskcolor="#d1d1d1"
     inkscape:current-layer="svg1" />
  <rect
     fill="#495E57"
     x="5"
     y="5"
     rx="20"
     ry="20"
     width="30"
     height="30"
     id="rect1" />
  <path
     fill-rule="evenodd"
     d="M 20,40 C 10.5719,40 5.85786,40 2.92894,37.071 0,34.1422 0,29.428 0,20 0,10.5719 0,5.85786 2.92894,2.92894 5.85786,0 10.5719,0 20,0 29.428,0 34.1422,0 37.071,2.92894 40,5.85786 40,10.5719 40,20 40,29.428 40,34.1422 37.071,37.071 34.1422,40 29.428,40 20,40 Z m 0,-27.5 c 0.8284,0 1.5,0.67158 1.5,1.5 v 4.5 H 26 c 0.8284,0 1.5,0.6716 1.5,1.5 0,0.8284 -0.6716,1.5 -1.5,1.5 H 21.5 V 26 c 0,0.8284 -0.6716,1.5 -1.5,1.5 -0.8284,0 -1.5,-0.6716 -1.5,-1.5 V 21.5 H 14 c -0.82842,0 -1.5,-0.6716 -1.5,-1.5 0,-0.8284 0.67158,-1.5 1.5,-1.5 h 4.5 V 14 c 0,-0.82842 0.6716,-1.5 1.5,-1.5 z"
     id="path1" />
</svg>
