<?xml version="1.0" encoding="UTF-8" standalone="no"?>
<!-- Uploaded to: SVG Repo, www.svgrepo.com, Generator: SVG Repo Mixer Tools -->

<svg
   width="40px"
   height="40px"
   viewBox="0 0 40 40"
   fill="#495E57"
   inkscape:version="1.4.2 (ebf0e940d0, 2025-05-08)"
   sodipodi:docname="cart.svg"
   version="1.1"
   id="svg1"
   xmlns:inkscape="http://www.inkscape.org/namespaces/inkscape"
   xmlns:sodipodi="http://sodipodi.sourceforge.net/DTD/sodipodi-0.dtd"
   xmlns="http://www.w3.org/2000/svg"
   xmlns:svg="http://www.w3.org/2000/svg">
  <defs
     id="defs1" />
  <sodipodi:namedview
     inkscape:zoom="16.99"
     inkscape:cx="24.896998"
     inkscape:cy="18.746321"
     inkscape:window-width="1920"
     inkscape:window-height="1000"
     inkscape:window-x="0"
     inkscape:window-y="0"
     inkscape:window-maximized="1"
     id="namedview1"
     pagecolor="#ffffff"
     bordercolor="#000000"
     borderopacity="0.25"
     inkscape:showpageshadow="2"
     inkscape:pageopacity="0.0"
     inkscape:pagecheckerboard="0"
     inkscape:deskcolor="#d1d1d1"
     showgrid="true"
     inkscape:current-layer="svg1">
    <inkscape:grid
       id="grid2"
       units="px"
       originx="0"
       originy="0"
       spacingx="1"
       spacingy="1"
       empcolor="#0099e5"
       empopacity="0.30196078"
       color="#0099e5"
       opacity="0.14901961"
       empspacing="5"
       enabled="true"
       visible="true" />
  </sodipodi:namedview>
  <path
     d="M 0,20 C 0,10.5719 0,5.85786 2.92894,2.92894 5.85786,0 10.5719,0 20,0 29.428,0 34.1422,0 37.071,2.92894 40,5.85786 40,10.5719 40,20 40,29.428 40,34.1422 37.071,37.071 34.1422,40 29.428,40 20,40 10.5719,40 5.85786,40 2.92894,37.071 0,34.1422 0,29.428 0,20 Z"
     id="path1" />
  <path
     id="path2"
     fill="#edefee"
     d="M 7.0055275,8.6936047 C 7.1934059,8.1593333 7.7788939,7.8784857 8.313267,8.0663321 l 0.412156,0.1448748 c 0.8430811,0.2963263 1.559149,0.5480116 2.12266,0.8244733 0.602555,0.295603 1.119257,0.6597592 1.507868,1.2283488 0.385602,0.564186 0.544805,1.183175 0.618281,1.861854 0.03288,0.303808 0.05024,0.640069 0.05938,1.009684 H 27.58111 c 2.304205,0 4.378401,0 4.985426,0.78902 0.607163,0.789032 0.369765,1.977893 -0.104897,4.355645 l -0.683467,3.315269 c -0.430893,2.090406 -0.646408,3.135542 -1.400848,3.750265 -0.754439,0.614719 -1.821761,0.614719 -3.956397,0.614719 h -7.25162 c -3.813797,0 -5.720684,0 -6.90547,-1.249403 -1.1848,-1.249541 -1.271265,-2.576745 -1.271265,-6.59868 v -3.557181 c 0,-1.011705 -0.0013,-1.688787 -0.05767,-2.208634 C 10.881112,11.849794 10.78581,11.601745 10.662381,11.421143 10.541948,11.244958 10.359166,11.080297 9.9445048,10.876876 9.5030273,10.660289 8.9030439,10.447611 7.9900998,10.126688 L 7.6329012,10.001123 C 7.0985299,9.8132868 6.8176503,9.2278949 7.0055119,8.69361 Z"
     style="stroke-width:0.884697;fill:#f4ce14;fill-opacity:1" />
  <path
     id="path3"
     d="m 15,27 c 1.380716,0 2.5,1.119372 2.5,2.500084 0,1.380713 -1.119284,2.500083 -2.5,2.500083 -1.380715,0 -2.5,-1.11937 -2.5,-2.500083 C 12.5,28.119372 13.619285,27 15,27 Z"
     fill="#edefee"
     style="fill:#f4ce14;fill-opacity:1" />
  <path
     id="path4"
     d="m 27,27 c 1.380716,0 2.5,1.119372 2.5,2.500084 0,1.380713 -1.119284,2.500083 -2.5,2.500083 -1.380715,0 -2.5,-1.11937 -2.5,-2.500083 C 24.5,28.119372 25.619285,27 27,27 Z"
     fill="#edefee"
     style="fill:#f4ce14;fill-opacity:1" />
</svg>
