<?xml version="1.0" encoding="UTF-8" standalone="no"?>
<!-- Uploaded to: SVG Repo, www.svgrepo.com, Generator: SVG Repo Mixer Tools -->

<svg
   width="40px"
   height="40px"
   viewBox="0 0 40 40"
   fill="none"
   version="1.1"
   id="svg1"
   sodipodi:docname="square-alt-arrow-right-svgrepo-com.svg"
   inkscape:version="1.4.2 (ebf0e940d0, 2025-05-08)"
   xmlns:inkscape="http://www.inkscape.org/namespaces/inkscape"
   xmlns:sodipodi="http://sodipodi.sourceforge.net/DTD/sodipodi-0.dtd"
   xmlns="http://www.w3.org/2000/svg"
   xmlns:svg="http://www.w3.org/2000/svg">
  <defs
     id="defs1" />
  <sodipodi:namedview
     id="namedview1"
     pagecolor="#ffffff"
     bordercolor="#000000"
     borderopacity="0.25"
     inkscape:showpageshadow="2"
     inkscape:pageopacity="0.0"
     inkscape:pagecheckerboard="0"
     inkscape:deskcolor="#d1d1d1"
     inkscape:zoom="0.98875"
     inkscape:cx="399.49431"
     inkscape:cy="238.17952"
     inkscape:window-width="1920"
     inkscape:window-height="1000"
     inkscape:window-x="0"
     inkscape:window-y="0"
     inkscape:window-maximized="1"
     inkscape:current-layer="svg1" />
  <rect
     id="rect1"
     width="30px"
     height="30px"
     fill="#F4CE14"
     x="5"
     y="5" />
  <path
     fill-rule="evenodd"
     clip-rule="evenodd"
     d="M 2.92894,37.071 C 5.85786,40 10.5719,40 20,40 29.428,40 34.1422,40 37.071,37.071 40,34.1422 40,29.428 40,20 40,10.5719 40,5.85786 37.071,2.92894 34.1422,0 29.428,0 20,0 10.5719,0 5.85786,0 2.92894,2.92894 0,5.85786 0,10.5719 0,20 0,29.428 0,34.1422 2.92894,37.071 Z m 13.0104,-10.0104 c -0.58578,-0.5858 -0.58578,-1.5354 0,-2.1212 L 20.8786,20 15.93934,15.06066 c -0.58578,-0.58578 -0.58578,-1.53554 0,-2.12132 0.58586,-0.58578 1.53546,-0.58578 2.12126,0 l 6,6.00006 C 24.342,19.2206 24.5,19.6022 24.5,20 c 0,0.3978 -0.158,0.7794 -0.4394,1.0606 l -6,6 c -0.5858,0.5858 -1.5354,0.5858 -2.12126,0 z"
     fill="#495e57"
     id="path1"
     style="stroke-width:1.99999" />
</svg>
