<?xml version="1.0" encoding="UTF-8" standalone="no"?>
<!-- Uploaded to: SVG Repo, www.svgrepo.com, Generator: SVG Repo Mixer Tools -->

<svg
   width="40px"
   height="40px"
   viewBox="0 0 40 40"
   fill="#495E57"
   inkscape:version="1.4.2 (ebf0e940d0, 2025-05-08)"
   sodipodi:docname="close.svg"
   version="1.1"
   id="svg1"
   xmlns:inkscape="http://www.inkscape.org/namespaces/inkscape"
   xmlns:sodipodi="http://sodipodi.sourceforge.net/DTD/sodipodi-0.dtd"
   xmlns="http://www.w3.org/2000/svg"
   xmlns:svg="http://www.w3.org/2000/svg">
  <defs
     id="defs1" />
  <sodipodi:namedview
     inkscape:zoom="0.98875"
     inkscape:cx="399.49431"
     inkscape:cy="76.359039"
     inkscape:window-width="1920"
     inkscape:window-height="1000"
     inkscape:window-x="0"
     inkscape:window-y="0"
     inkscape:window-maximized="1"
     id="namedview1"
     pagecolor="#ffffff"
     bordercolor="#000000"
     borderopacity="0.25"
     inkscape:showpageshadow="2"
     inkscape:pageopacity="0.0"
     inkscape:pagecheckerboard="0"
     inkscape:deskcolor="#d1d1d1"
     inkscape:current-layer="svg1" />
  <rect
     fill="#EDEFEE"
     x="5"
     y="5"
     rx="20"
     ry="20"
     width="30"
     height="30"
     id="rect1" />
  <path
     fill-rule="evenodd"
     d="M 20,40 C 10.5719,40 5.85786,40 2.92894,37.071 0,34.1422 0,29.428 0,20 0,10.5719 0,5.85786 2.92894,2.92894 5.85786,0 10.5719,0 20,0 29.428,0 34.1422,0 37.071,2.92894 40,5.85786 40,10.5719 40,20 40,29.428 40,34.1422 37.071,37.071 34.1422,40 29.428,40 20,40 Z M 13.9393,13.93934 c 0.58578,-0.58578 1.53554,-0.58578 2.1213,0 L 20,17.8788 23.9392,13.93938 c 0.5858,-0.58578 1.5356,-0.58578 2.1214,0 0.5858,0.58578 0.5858,1.53554 0,2.12122 L 22.1212,20 l 3.9394,3.9394 c 0.5858,0.5856 0.5858,1.5354 0,2.1212 -0.5858,0.5858 -1.5356,0.5858 -2.1214,0 L 20,22.1214 16.0606,26.0606 c -0.58572,0.5858 -1.53548,0.5858 -2.12126,0 -0.58578,-0.5858 -0.58578,-1.5354 0,-2.1212 L 17.8786,20 13.9393,16.0606 c -0.58578,-0.58572 -0.58578,-1.53548 0,-2.12126 z"
     id="path1" />
</svg>
