<?xml version="1.0" encoding="UTF-8" standalone="no"?>
<!-- Uploaded to: SVG Repo, www.svgrepo.com, Generator: SVG Repo Mixer Tools -->

<svg
   width="128px"
   height="128px"
   viewBox="0 0 128 128"
   fill="none"
   version="1.1"
   id="svg3"
   sodipodi:docname="empty-cart.svg"
   inkscape:version="1.4.2 (ebf0e940d0, 2025-05-08)"
   xmlns:inkscape="http://www.inkscape.org/namespaces/inkscape"
   xmlns:sodipodi="http://sodipodi.sourceforge.net/DTD/sodipodi-0.dtd"
   xmlns="http://www.w3.org/2000/svg"
   xmlns:svg="http://www.w3.org/2000/svg">
  <defs
     id="defs1" />
  <sodipodi:namedview
     inkscape:zoom="0.98875"
     inkscape:cx="399.49431"
     inkscape:cy="238.17952"
     inkscape:window-width="1920"
     inkscape:window-height="1000"
     inkscape:window-x="0"
     inkscape:window-y="0"
     inkscape:window-maximized="1"
     inkscape:current-layer="svg3"
     id="namedview1"
     pagecolor="#ffffff"
     bordercolor="#000000"
     borderopacity="0.25"
     inkscape:showpageshadow="2"
     inkscape:pageopacity="0.0"
     inkscape:pagecheckerboard="0"
     inkscape:deskcolor="#d1d1d1" />
  <path
     d="M 0.2873752,3.423113 C 1.2129388,0.75557338 4.0972827,-0.64666662 6.7298023,0.29123197 L 8.7602706,1.0145724 c 4.1533454,1.4795166 7.6809824,2.7361463 10.4570674,4.1164732 2.96842,1.4758984 5.513907,3.2940797 7.428358,6.1329654 1.89963,2.816905 2.683926,5.907416 3.045894,9.295976 0.162087,1.516858 0.247554,3.195776 0.2926,5.041195 h 71.66678 c 11.35138,0 21.56979,0 24.56024,3.939463 2.9911,3.939528 1.82161,9.875344 -0.51692,21.74711 l -3.36698,16.552658 c -2.12279,10.437102 -3.18444,15.655312 -6.90117,18.724526 -3.71664,3.069215 -8.97464,3.069215 -19.490798,3.069215 H 60.211091 c -18.788289,0 -28.182363,0 -34.019093,-6.2381 -5.836752,-6.238774 -6.26272,-12.865296 -6.26272,-32.946257 V 32.689318 c 0,-5.051299 -0.0067,-8.431872 -0.284201,-11.027392 -0.264915,-2.480424 -0.734463,-3.718894 -1.342522,-4.620612 -0.59324,-0.879669 -1.493737,-1.701789 -3.536528,-2.717442 C 12.591125,13.242479 9.6353726,12.180611 5.1378451,10.578285 L 3.3781328,9.951335 C 0.74560968,9.0135046 -0.63812259,6.090721 0.2873752,3.423113 Z"
     fill="#495e57"
     id="path1"
     style="stroke-width:6.78171" />
  <path
     d="m 36.772598,107.51969 c 5.580941,0 10.105143,4.5847 10.105143,10.23981 0,5.65511 -4.524202,10.23982 -10.105143,10.23982 -5.580934,0 -10.105142,-4.58471 -10.105142,-10.23982 0,-5.65511 4.524208,-10.23981 10.105142,-10.23981 z"
     fill="#495e57"
     id="path2"
     style="stroke-width:6.78171" />
  <path
     d="m 97.403526,107.52038 c 5.580674,0 10.105074,4.58401 10.105074,10.2398 0,5.65511 -4.5244,10.23982 -10.105074,10.23982 -5.5808,0 -10.105192,-4.58471 -10.105192,-10.23982 0,-5.65579 4.524392,-10.2398 10.105192,-10.2398 z"
     fill="#495e57"
     id="path3"
     style="stroke-width:6.78171" />
</svg>
