<?xml version="1.0" encoding="UTF-8" standalone="no"?>
<!-- Uploaded to: SVG Repo, www.svgrepo.com, Generator: SVG Repo Mixer Tools -->

<svg
   width="40px"
   height="40px"
   viewBox="0 0 40 40"
   inkscape:version="1.4.2 (ebf0e940d0, 2025-05-08)"
   sodipodi:docname="location.svg"
   version="1.1"
   id="svg1"
   xmlns:inkscape="http://www.inkscape.org/namespaces/inkscape"
   xmlns:sodipodi="http://sodipodi.sourceforge.net/DTD/sodipodi-0.dtd"
   xmlns="http://www.w3.org/2000/svg"
   xmlns:svg="http://www.w3.org/2000/svg">
  <defs
     id="defs1" />
  <sodipodi:namedview
     inkscape:zoom="5.6"
     inkscape:cx="71.071429"
     inkscape:cy="38.125"
     inkscape:window-width="1920"
     inkscape:window-height="1000"
     inkscape:window-x="0"
     inkscape:window-y="0"
     inkscape:window-maximized="1"
     id="namedview1"
     pagecolor="#ffffff"
     bordercolor="#000000"
     borderopacity="0.25"
     inkscape:showpageshadow="2"
     inkscape:pageopacity="0.0"
     inkscape:pagecheckerboard="0"
     inkscape:deskcolor="#d1d1d1" />
  <path
     d="M 36.521168,13.07317 C 34.509898,4.0585366 26.790456,0 20.009607,0 c 0,0 0,0 -0.01916,0 C 13.228699,0 5.490101,4.0390244 3.4788319,13.053658 1.2377033,23.121951 7.2906658,31.64878 12.76898,37.014634 14.799404,39.004878 17.404534,40 20.009607,40 22.614678,40 25.219751,39.004878 27.23102,37.014634 32.709334,31.64878 38.762297,23.141463 36.521168,13.07317 Z m -16.511561,9.775611 c -3.332961,0 -6.033866,-2.75122 -6.033866,-6.146342 0,-3.395122 2.700905,-6.146341 6.033866,-6.146341 3.33296,0 6.033806,2.751219 6.033806,6.146341 0,3.395122 -2.700846,6.146342 -6.033806,6.146342 z"
     fill="#f4ce14"
     style="stroke-width:1.93327"
     id="path1" />
</svg>
