<?xml version="1.0" encoding="UTF-8" standalone="no"?>
<!-- Uploaded to: SVG Repo, www.svgrepo.com, Generator: SVG Repo Mixer Tools -->

<svg
   height="80px"
   width="80px"
   viewBox="0 0 80 80"
   inkscape:version="1.4.2 (ebf0e940d0, 2025-05-08)"
   sodipodi:docname="logo-footer.svg"
   version="1.1"
   id="svg1"
   xmlns:inkscape="http://www.inkscape.org/namespaces/inkscape"
   xmlns:sodipodi="http://sodipodi.sourceforge.net/DTD/sodipodi-0.dtd"
   xmlns="http://www.w3.org/2000/svg"
   xmlns:svg="http://www.w3.org/2000/svg">
  <defs
     id="defs1" />
  <sodipodi:namedview
     inkscape:zoom="6.43"
     inkscape:cx="56.765163"
     inkscape:cy="14.385692"
     inkscape:window-width="1920"
     inkscape:window-height="1000"
     inkscape:window-x="0"
     inkscape:window-y="0"
     inkscape:window-maximized="1"
     id="namedview1"
     pagecolor="#ffffff"
     bordercolor="#000000"
     borderopacity="0.25"
     inkscape:showpageshadow="2"
     inkscape:pageopacity="0.0"
     inkscape:pagecheckerboard="0"
     inkscape:deskcolor="#d1d1d1"
     inkscape:current-layer="g1" />
  <g
     id="g1">
    <rect
       width="76"
       height="76"
       rx="40"
       y="2"
       ry="40"
       fill="#495e57"
       x="2"
       id="rect1"
       style="stroke-width:1.99999" />
    <path
       d="M 38.499934,68.33331 V 48.000064 c 0,-1.66667 -2.000036,-2.333402 -2.999974,-1.333304 L 21.166662,61.000058 c -0.666732,0.666732 -0.666732,2.000036 0.16668,2.666608 4.333278,3.500022 9.666654,5.666742 15.333396,6.333314 0.833256,0.333366 1.833194,-0.666572 1.833194,-1.66667 z"
       id="path1"
       fill="#edefee"
       style="stroke-width:1.99999" />
    <path
       d="m 16.166651,21.166662 c -3.500023,4.333278 -5.666742,9.666654 -6.333314,15.333394 -0.166684,0.99994 0.666732,2.000036 1.833353,2.000036 h 20.333246 c 1.66667,0 2.333402,-2.000036 1.333304,-2.999974 L 18.999942,21.16682 c -0.833255,-0.833414 -2.166559,-0.833414 -2.833291,-1.58e-4 z"
       id="path2"
       fill="#edefee"
       style="stroke-width:1.99999" />
    <path
       d="m 9.833337,43.499944 c 0.666732,5.833264 2.999974,10.999958 6.333314,15.333394 0.666732,0.833256 1.833353,0.833256 2.666608,0.16668 L 33.166558,44.66672 c 1.16662,-1.166622 0.333366,-2.999974 -1.333304,-2.999974 H 11.66669 C 10.666592,41.500066 9.666654,42.5 9.833337,43.49994 Z"
       id="path3"
       fill="#edefee"
       style="stroke-width:1.99999" />
    <path
       d="M 70.166664,36.500056 C 69.499932,30.666792 67.166688,25.500098 63.833348,21.166662 63.166618,20.333406 61.999996,20.333406 61.16674,20.999982 L 46.833442,35.33328 c -1.16662,1.166622 -0.333366,2.999974 1.333304,2.999974 H 68.500152 C 69.333408,38.499934 70.333346,37.5 70.166664,36.50006 Z"
       id="path4"
       fill="#edefee"
       style="stroke-width:1.99999" />
    <path
       d="M 38.499934,31.999936 V 11.66669 c 0,-0.999938 -0.833256,-1.833353 -2.000036,-1.833353 -5.833266,0.666732 -10.999958,2.999974 -15.333396,6.333314 -0.833256,0.666732 -0.833256,1.833353 -0.16668,2.666608 L 35.33312,33.166558 c 1.16694,1.16678 3.166818,0.500048 3.166818,-1.166622 z"
       id="path5"
       fill="#edefee"
       style="stroke-width:1.99999" />
    <path
       d="m 41.500066,11.66669 v 20.333246 c 0,1.66667 2.000036,2.333402 2.999974,1.333304 L 58.833338,18.999942 C 59.50007,18.33321 59.50007,16.999906 58.666656,16.333334 54.333378,12.833311 49.000002,10.666592 43.33326,10.00002 42.500004,9.666654 41.500066,10.500069 41.500066,11.66669 Z"
       id="path6"
       fill="#edefee"
       style="stroke-width:1.99999" />
    <path
       d="m 63.833348,58.833338 c 3.500024,-4.333278 5.666742,-9.666654 6.333316,-15.333394 0.16668,-0.99994 -0.666732,-2.000036 -1.833354,-2.000036 H 48.000064 c -1.66667,0 -2.333402,2.000036 -1.333304,2.999974 L 61.000058,58.83318 c 0.833256,0.833414 2.16656,0.833414 2.83329,1.58e-4 z"
       id="path7"
       fill="#edefee"
       style="stroke-width:1.99999" />
    <path
       d="m 43.499944,70.166664 c 5.833264,-0.666732 10.999958,-2.999976 15.333394,-6.333316 0.833256,-0.66673 0.833256,-1.833352 0.16668,-2.666608 L 44.66672,46.833442 c -1.166622,-1.16662 -2.999974,-0.333366 -2.999974,1.333304 v 20.333406 c -0.16668,0.833256 0.833254,1.833194 1.833194,1.666512 z"
       id="path8"
       fill="#edefee"
       style="stroke-width:1.99999" />
    <path
       d="M 40.00008,0 C 17.833321,0 0,17.833321 0,40.00008 0,40.500128 0,41.000018 0,41.500066 0.83325524,62.83341 18.33337,80 40.00008,80 61.66679,80 79.166744,62.83341 80,41.500066 80,41.000018 80,40.500128 80,40.00008 80,17.833321 62.166678,0 40.00008,0 Z m 0,74.666624 c -18.666736,0 -33.8332894,-14.833346 -34.6667042,-33.166716 0,-0.50005 0,-0.999938 0,-1.499988 0,-19.166624 15.5000782,-34.6667036 34.6667042,-34.6667036 19.166624,0 34.666704,15.5000796 34.666704,34.6667036 0,0.50005 0,0.999938 0,1.499988 C 73.833368,59.99996 58.666656,74.666624 40.00008,74.666624 Z"
       id="path9"
       fill="#edefee"
       style="stroke-width:1.99999" />
  </g>
</svg>
