<?xml version="1.0" encoding="UTF-8" standalone="no"?>
<!-- Uploaded to: SVG Repo, www.svgrepo.com, Generator: SVG Repo Mixer Tools -->

<svg
   height="40px"
   width="40px"
   viewBox="0 0 40 40"
   inkscape:version="1.4.2 (ebf0e940d0, 2025-05-08)"
   sodipodi:docname="logo.svg"
   version="1.1"
   id="svg1"
   xmlns:inkscape="http://www.inkscape.org/namespaces/inkscape"
   xmlns:sodipodi="http://sodipodi.sourceforge.net/DTD/sodipodi-0.dtd"
   xmlns="http://www.w3.org/2000/svg"
   xmlns:svg="http://www.w3.org/2000/svg">
  <defs
     id="defs1" />
  <sodipodi:namedview
     inkscape:zoom="6.43"
     inkscape:cx="56.765163"
     inkscape:cy="14.385692"
     inkscape:window-width="1920"
     inkscape:window-height="1000"
     inkscape:window-x="0"
     inkscape:window-y="0"
     inkscape:window-maximized="1"
     id="namedview1"
     pagecolor="#ffffff"
     bordercolor="#000000"
     borderopacity="0.25"
     inkscape:showpageshadow="2"
     inkscape:pageopacity="0.0"
     inkscape:pagecheckerboard="0"
     inkscape:deskcolor="#d1d1d1"
     inkscape:current-layer="g1" />
  <g
     id="g1">
    <rect
       width="38"
       height="38"
       rx="20"
       y="1"
       ry="20"
       fill="#F4CE14"
       x="1"
       id="rect1" />
    <path
       d="M 19.249967,34.166655 V 24.000032 c 0,-0.833335 -1.000018,-1.166701 -1.499987,-0.666652 l -7.166649,7.166649 c -0.333366,0.333366 -0.333366,1.000018 0.08334,1.333304 2.166639,1.750011 4.833327,2.833371 7.666698,3.166657 0.416628,0.166683 0.916597,-0.333286 0.916597,-0.833335 z"
       id="path1"
       fill="#495e57" />
    <path
       d="m 8.0833255,10.583331 c -1.7500114,2.166639 -2.8333709,4.833327 -3.166657,7.666697 -0.083342,0.49997 0.3333659,1.000018 0.9166765,1.000018 h 10.166623 c 0.833335,0 1.166701,-1.000018 0.666652,-1.499987 L 9.4999711,10.58341 C 9.0833435,10.166703 8.4166914,10.166703 8.0833255,10.583331 Z"
       id="path2"
       fill="#495e57" />
    <path
       d="m 4.9166685,21.749972 c 0.3333659,2.916632 1.499987,5.499979 3.166657,7.666697 0.3333659,0.416628 0.9166765,0.416628 1.3333041,0.08334 L 16.583279,22.33336 c 0.58331,-0.583311 0.166683,-1.499987 -0.666652,-1.499987 H 5.833345 C 5.3332961,20.750033 4.833327,21.25 4.9166685,21.74997 Z"
       id="path3"
       fill="#495e57" />
    <path
       d="m 35.083332,18.250028 c -0.333366,-2.916632 -1.499988,-5.499979 -3.166658,-7.666697 -0.333365,-0.416628 -0.916676,-0.416628 -1.333304,-0.08334 l -7.166649,7.166649 c -0.58331,0.583311 -0.166683,1.499987 0.666652,1.499987 h 10.166703 c 0.416628,0.08334 0.916597,-0.416627 0.833256,-0.916597 z"
       id="path4"
       fill="#495e57" />
    <path
       d="M 19.249967,15.999968 V 5.833345 c 0,-0.4999691 -0.416628,-0.9166765 -1.000018,-0.9166765 -2.916633,0.3333659 -5.499979,1.499987 -7.666698,3.166657 -0.416628,0.3333659 -0.416628,0.9166765 -0.08334,1.3333041 l 7.166649,7.1666494 c 0.58347,0.58339 1.583409,0.250024 1.583409,-0.583311 z"
       id="path5"
       fill="#495e57" />
    <path
       d="m 20.750033,5.833345 v 10.166623 c 0,0.833335 1.000018,1.166701 1.499987,0.666652 L 29.416669,9.4999711 C 29.750035,9.1666052 29.750035,8.4999531 29.333328,8.166667 27.166689,6.4166555 24.500001,5.3332961 21.66663,5.00001 21.250002,4.833327 20.750033,5.2500344 20.750033,5.833345 Z"
       id="path6"
       fill="#495e57" />
    <path
       d="m 31.916674,29.416669 c 1.750012,-2.166639 2.833371,-4.833327 3.166658,-7.666697 0.08334,-0.49997 -0.333366,-1.000018 -0.916677,-1.000018 H 24.000032 c -0.833335,0 -1.166701,1.000018 -0.666652,1.499987 l 7.166649,7.166649 c 0.416628,0.416707 1.08328,0.416707 1.416645,7.9e-5 z"
       id="path7"
       fill="#495e57" />
    <path
       d="m 21.749972,35.083332 c 2.916632,-0.333366 5.499979,-1.499988 7.666697,-3.166658 0.416628,-0.333365 0.416628,-0.916676 0.08334,-1.333304 L 22.33336,23.416721 c -0.583311,-0.58331 -1.499987,-0.166683 -1.499987,0.666652 v 10.166703 c -0.08334,0.416628 0.416627,0.916597 0.916597,0.833256 z"
       id="path8"
       fill="#495e57" />
    <path
       d="M 20.00004,0 C 8.9166605,0 0,8.9166605 0,20.00004 0,20.250064 0,20.500009 0,20.750033 0.41662762,31.416705 9.1666849,40 20.00004,40 30.833395,40 39.583372,31.416705 40,20.750033 40,20.500009 40,20.250064 40,20.00004 40,8.9166605 31.083339,0 20.00004,0 Z m 0,37.333312 c -9.333368,0 -16.9166447,-7.416673 -17.3333521,-16.583358 0,-0.250025 0,-0.499969 0,-0.749994 0,-9.583312 7.7500391,-17.3333518 17.3333521,-17.3333518 9.583312,0 17.333352,7.7500398 17.333352,17.3333518 0,0.250025 0,0.499969 0,0.749994 -0.416708,9.250026 -8.000064,16.583358 -17.333352,16.583358 z"
       id="path9"
       fill="#495e57" />
  </g>
</svg>
