<?xml version="1.0" encoding="UTF-8" standalone="no"?>
<!-- Uploaded to: SVG Repo, www.svgrepo.com, Generator: SVG Repo Mixer Tools -->

<svg
   height="40px"
   width="40px"
   viewBox="0 0 40 40"
   inkscape:version="1.4.2 (ebf0e940d0, 2025-05-08)"
   sodipodi:docname="logo-footer.svg"
   version="1.1"
   id="svg1"
   xmlns:inkscape="http://www.inkscape.org/namespaces/inkscape"
   xmlns:sodipodi="http://sodipodi.sourceforge.net/DTD/sodipodi-0.dtd"
   xmlns="http://www.w3.org/2000/svg"
   xmlns:svg="http://www.w3.org/2000/svg">
  <defs
     id="defs1" />
  <sodipodi:namedview
     inkscape:zoom="6.43"
     inkscape:cx="56.765163"
     inkscape:cy="14.385692"
     inkscape:window-width="1920"
     inkscape:window-height="1000"
     inkscape:window-x="0"
     inkscape:window-y="0"
     inkscape:window-maximized="1"
     id="namedview1"
     pagecolor="#ffffff"
     bordercolor="#000000"
     borderopacity="0.25"
     inkscape:showpageshadow="2"
     inkscape:pageopacity="0.0"
     inkscape:pagecheckerboard="0"
     inkscape:deskcolor="#d1d1d1"
     inkscape:current-layer="g1"
     showgrid="true">
    <inkscape:grid
       id="grid1"
       units="px"
       originx="0"
       originy="0"
       spacingx="1"
       spacingy="1"
       empcolor="#0099e5"
       empopacity="0.30196078"
       color="#0099e5"
       opacity="0.14901961"
       empspacing="5"
       enabled="true"
       visible="true" />
  </sodipodi:namedview>
  <g
     id="g1">
    <rect
       width="40"
       height="40"
       rx="22.857143"
       y="0"
       ry="22.857143"
       fill="#f4ce14"
       x="0"
       id="rect1"
       style="stroke-width:1.14285" />
    <path
       d="M 19.142819,36.304749 V 24.685751 c 0,-0.952383 -1.142877,-1.333373 -1.71427,-0.761888 l -8.190456,8.190456 c -0.38099,0.38099 -0.38099,1.142878 0.09525,1.523776 2.476158,2.000012 5.523802,3.238138 8.76194,3.619036 0.476146,0.190495 1.047539,-0.380898 1.04754,-0.952382 z"
       id="path1"
       fill="#495e57"
       style="stroke-width:1.14285" />
    <path
       d="M 6.380943,9.3523784 C 4.38093,11.828537 3.142805,14.876181 2.761907,18.114318 c -0.09525,0.571394 0.380989,1.142877 1.04763,1.142877 h 11.618998 c 0.952383,0 1.333372,-1.142877 0.761888,-1.71427 L 7.999967,9.3524694 C 7.523821,8.8762324 6.761933,8.8762324 6.380943,9.3523784 Z"
       id="path2"
       fill="#495e57"
       style="stroke-width:1.14285" />
    <path
       d="m 2.761907,22.114254 c 0.380989,3.333293 1.714271,6.28569 3.619036,8.761939 0.38099,0.476146 1.047631,0.476146 1.523777,0.09525 l 8.190456,-8.190456 c 0.66664,-0.666641 0.190495,-1.714271 -0.761888,-1.714271 H 3.809537 c -0.571484,-0.09525 -1.142878,0.476145 -1.04763,1.047539 z"
       id="path3"
       fill="#495e57"
       style="stroke-width:1.14285" />
    <path
       d="m 37.238094,18.114318 c -0.38099,-3.333294 -1.714272,-6.285691 -3.619038,-8.7619396 -0.380989,-0.476146 -1.04763,-0.476146 -1.523776,-0.09525 l -8.190456,8.1904556 c -0.66664,0.666641 -0.190495,1.71427 0.761888,1.71427 h 11.619089 c 0.476146,0.09525 1.04754,-0.476145 0.952293,-1.047539 z"
       id="path4"
       fill="#495e57"
       style="stroke-width:1.14285" />
    <path
       d="M 19.142819,15.542821 V 3.9238233 c 0,-0.5713932 -0.476146,-1.0476303 -1.142877,-1.0476303 C 14.666647,3.2571826 11.714251,4.5904639 9.238001,6.4952296 8.761855,6.8762192 8.761855,7.5428599 9.142751,8.0190054 l 8.190456,8.1904566 c 0.666823,0.666731 1.809611,0.285741 1.809612,-0.666641 z"
       id="path5"
       fill="#495e57"
       style="stroke-width:1.14285" />
    <path
       d="M 20.857181,3.9238233 V 15.542821 c 0,0.952382 1.142877,1.333372 1.71427,0.761888 l 8.190456,-8.1904556 c 0.38099,-0.38099 0.38099,-1.142878 -0.09525,-1.5237764 C 28.190502,4.5904639 25.142858,3.3523389 21.90472,2.9714405 21.428574,2.7809456 20.857181,3.2571826 20.857181,3.9238233 Z"
       id="path6"
       fill="#495e57"
       style="stroke-width:1.14285" />
    <path
       d="m 33.619056,30.876193 c 2.000014,-2.476159 3.238138,-5.523802 3.619038,-8.761939 0.09525,-0.571395 -0.38099,-1.142878 -1.047631,-1.142878 H 24.571465 c -0.952383,0 -1.333372,1.142878 -0.761888,1.714271 l 8.190456,8.190456 c 0.476146,0.476236 1.238034,0.476236 1.619023,9e-5 z"
       id="path7"
       fill="#495e57"
       style="stroke-width:1.14285" />
    <path
       d="m 21.999968,37.352379 c 3.333294,-0.380989 6.28569,-1.714272 8.761939,-3.619037 0.476147,-0.380989 0.476147,-1.04763 0.09525,-1.523776 L 22.666701,24.01911 C 22.00006,23.35247 20.95243,23.828615 20.95243,24.780998 v 11.619089 c -0.09524,0.476146 0.476145,1.047539 1.04754,0.952292 z"
       id="path8"
       fill="#495e57"
       style="stroke-width:1.14285" />
  </g>
</svg>
