<?xml version="1.0" encoding="UTF-8" standalone="no"?>
<!-- Uploaded to: SVG Repo, www.svgrepo.com, Generator: SVG Repo Mixer Tools -->

<svg
   width="40px"
   height="40px"
   viewBox="0 0 40 40"
   fill="#495e57"
   inkscape:version="1.4.2 (ebf0e940d0, 2025-05-08)"
   sodipodi:docname="menu.svg"
   version="1.1"
   id="svg1"
   xmlns:inkscape="http://www.inkscape.org/namespaces/inkscape"
   xmlns:sodipodi="http://sodipodi.sourceforge.net/DTD/sodipodi-0.dtd"
   xmlns="http://www.w3.org/2000/svg"
   xmlns:svg="http://www.w3.org/2000/svg">
  <defs
     id="defs1" />
  <sodipodi:namedview
     inkscape:zoom="6"
     inkscape:cx="71.666667"
     inkscape:cy="22.583333"
     inkscape:window-width="1920"
     inkscape:window-height="1000"
     inkscape:window-x="0"
     inkscape:window-y="0"
     inkscape:window-maximized="1"
     id="namedview1"
     pagecolor="#ffffff"
     bordercolor="#000000"
     borderopacity="0.25"
     inkscape:showpageshadow="2"
     inkscape:pageopacity="0.0"
     inkscape:pagecheckerboard="0"
     inkscape:deskcolor="#d1d1d1"
     inkscape:current-layer="svg1" />
  <rect
     x="5"
     y="5"
     rx="20"
     ry="20"
     fill="#EDEFEE"
     width="30"
     height="30"
     id="rect1" />
  <path
     d="M 2.92894,2.92894 C 0,5.85786 0,10.5719 0,20 0,29.428 0,34.1422 2.92894,37.071 5.85786,40 10.5719,40 20,40 29.428,40 34.1422,40 37.071,37.071 40,34.1422 40,29.428 40,20 40,10.5719 40,5.85786 37.071,2.92894 34.1422,0 29.428,0 20,0 10.5719,0 5.85786,0 2.92894,2.92894 Z M 20,22 c 1.1046,0 2,-0.8954 2,-2 0,-1.1046 -0.8954,-2 -2,-2 -1.1046,0 -2,0.8954 -2,2 0,1.1046 0.8954,2 2,2 z m -6,-2 c 0,1.1046 -0.89544,2 -2,2 -1.10456,0 -2,-0.8954 -2,-2 0,-1.1046 0.89544,-2 2,-2 1.10456,0 2,0.8954 2,2 z m 14,2 c 1.1046,0 2,-0.8954 2,-2 0,-1.1046 -0.8954,-2 -2,-2 -1.1046,0 -2,0.8954 -2,2 0,1.1046 0.8954,2 2,2 z"
     fill-rule="evenodd"
     id="path1" />
</svg>
