<?xml version="1.0" encoding="UTF-8" standalone="no"?>
<!-- Uploaded to: SVG Repo, www.svgrepo.com, Generator: SVG Repo Mixer Tools -->

<svg
   width="40"
   height="40"
   viewBox="0 0 40 40"
   fill="none"
   version="1.1"
   id="svg1"
   sodipodi:docname="trash.svg"
   inkscape:version="1.4.2 (ebf0e940d0, 2025-05-08)"
   xmlns:inkscape="http://www.inkscape.org/namespaces/inkscape"
   xmlns:sodipodi="http://sodipodi.sourceforge.net/DTD/sodipodi-0.dtd"
   xmlns="http://www.w3.org/2000/svg"
   xmlns:svg="http://www.w3.org/2000/svg">
  <defs
     id="defs1" />
  <sodipodi:namedview
     id="namedview1"
     pagecolor="#ffffff"
     bordercolor="#000000"
     borderopacity="0.25"
     inkscape:showpageshadow="2"
     inkscape:pageopacity="0.0"
     inkscape:pagecheckerboard="0"
     inkscape:deskcolor="#d1d1d1"
     showgrid="true"
     inkscape:zoom="14.79"
     inkscape:cx="29.006085"
     inkscape:cy="18.627451"
     inkscape:window-width="1920"
     inkscape:window-height="1000"
     inkscape:window-x="0"
     inkscape:window-y="0"
     inkscape:window-maximized="1"
     inkscape:current-layer="svg1">
    <inkscape:grid
       id="grid3"
       units="px"
       originx="0"
       originy="0"
       spacingx="1"
       spacingy="1"
       empcolor="#0099e5"
       empopacity="0.30196078"
       color="#0099e5"
       opacity="0.14901961"
       empspacing="5"
       enabled="true"
       visible="true" />
    <inkscape:page
       x="0"
       y="0"
       width="40"
       height="40"
       id="page2"
       margin="0"
       bleed="0" />
  </sodipodi:namedview>
  <path
     d="M 0,20 C 0,10.5719 0,5.85786 2.92894,2.92894 5.85786,0 10.5719,0 20,0 29.428,0 34.1422,0 37.071,2.92894 40,5.85786 40,10.5719 40,20 40,29.428 40,34.1422 37.071,37.071 34.1422,40 29.428,40 20,40 10.5719,40 5.85786,40 2.92894,37.071 0,34.1422 0,29.428 0,20 Z"
     fill="#1C274C"
     id="path1"
     style="fill:#edefee;fill-opacity:1;stroke-width:2" />
  <path
     id="path2"
     d="m 19.480047,33 h 1.039885 c 3.577754,0 5.366695,0 6.529751,-1.165302 1.163184,-1.165301 1.282113,-3.076823 1.520098,-6.899998 l 0.3429,-5.508711 C 29.041895,17.351623 29.106438,16.314492 28.522852,15.657247 27.939396,15 26.954025,15 24.983413,15 h -9.966794 c -1.970703,0 -2.956061,0 -3.539556,0.657247 -0.583495,0.657245 -0.518926,1.694376 -0.389789,3.768742 l 0.342913,5.508711 c 0.237997,3.823175 0.35699,5.734697 1.520098,6.899998 C 14.113392,33 15.902282,33 19.480047,33 Z M 17.745235,20.094075 c -0.05297,-0.570615 -0.525561,-0.987067 -1.05548,-0.929979 -0.52992,0.05709 -0.916533,0.566011 -0.863549,1.136626 l 0.642856,6.923148 c 0.053,0.570615 0.525536,0.987066 1.055417,0.929978 0.52997,-0.05709 0.916584,-0.56601 0.863613,-1.136626 z m 5.564951,-0.929979 c 0.529972,0.05709 0.916586,0.566011 0.863614,1.136626 l -0.642856,6.923148 c -0.05297,0.570615 -0.5256,0.987066 -1.055442,0.929978 -0.529971,-0.05709 -0.916585,-0.56601 -0.863614,-1.136626 l 0.642858,-6.923147 c 0.05297,-0.570615 0.525599,-0.987067 1.05544,-0.929979 z"
     fill="#495e57"
     fill-rule="evenodd"
     style="stroke-width:1.30046" />
  <path
     id="path3"
     d="m 7.9732928,12.000005 c 0,-0.552272 0.4605065,-0.999985 1.0285732,-0.999985 l 3.552319,-5.35e-4 c 0.705801,-0.0174 1.328466,-0.453708 1.568627,-1.0991874 0.0064,-0.016975 0.01357,-0.037906 0.03962,-0.113863 l 0.153066,-0.4465148 c 0.09366,-0.2737708 0.175267,-0.5122929 0.289466,-0.7254841 0.45112,-0.8422426 1.285775,-1.4271079 2.250294,-1.5768468 0.244133,-0.037906 0.502706,-0.037746 0.799505,-0.037564 h 4.637332 c 0.296799,-1.824e-4 0.555333,-3.418e-4 0.799465,0.037564 0.964535,0.1497389 1.799201,0.7346042 2.250268,1.5768468 0.114267,0.2131912 0.195866,0.4517133 0.289467,0.7254841 l 0.153065,0.4465148 c 0.026,0.075959 0.03333,0.096888 0.0396,0.1138632 0.240267,0.6454792 0.9864,1.0823262 1.692133,1.0997222 h 3.428666 c 0.567998,0 1.028531,0.447713 1.028531,0.999985 C 31.97329,12.552289 31.512756,13 30.944756,13 H 9.001866 C 8.4337993,13 7.9732928,12.552289 7.9732928,12.000005 Z"
     fill="#495e57"
     style="stroke-width:1.23288" />
</svg>
